<?xml version="1.0" encoding="UTF-8" standalone="no"?>
<!-- Created with Inkscape (http://www.inkscape.org/) -->

<svg
   width="200mm"
   height="200mm"
   viewBox="0 0 200 200"
   version="1.1"
   id="svg1"
   inkscape:version="1.3.2 (1:1.3.2+202311252150+091e20ef0f)"
   sodipodi:docname="GameboyCameraClubLogoOutline.svg"
   inkscape:export-filename="GameboyCameraClubLogo"
   inkscape:export-xdpi="96"
   inkscape:export-ydpi="96"
   xmlns:inkscape="http://www.inkscape.org/namespaces/inkscape"
   xmlns:sodipodi="http://sodipodi.sourceforge.net/DTD/sodipodi-0.dtd"
   xmlns="http://www.w3.org/2000/svg"
   xmlns:svg="http://www.w3.org/2000/svg">
  <sodipodi:namedview
     id="namedview1"
     pagecolor="#ffffff"
     bordercolor="#000000"
     borderopacity="0.25"
     inkscape:showpageshadow="2"
     inkscape:pageopacity="0.0"
     inkscape:pagecheckerboard="0"
     inkscape:deskcolor="#d1d1d1"
     inkscape:document-units="mm"
     inkscape:zoom="0.37905794"
     inkscape:cx="-38.252727"
     inkscape:cy="249.30226"
     inkscape:window-width="1432"
     inkscape:window-height="778"
     inkscape:window-x="2003"
     inkscape:window-y="123"
     inkscape:window-maximized="0"
     inkscape:current-layer="layer1" />
  <defs
     id="defs1" />
  <g
     inkscape:label="Layer 1"
     inkscape:groupmode="layer"
     id="layer1">
    <g
       id="g10"
       transform="matrix(0.86424788,0,0,0.86424788,-163.62049,-24.876657)"
       style="display:inline;stroke:#000000;fill:none;stroke-width:1.15707544;stroke-dasharray:none">
      <g
         inkscape:label="Layer 1"
         id="layer1-6"
         style="display:inline;stroke:#000000;fill:none;stroke-width:1.15707544;stroke-dasharray:none"
         transform="translate(199.58717)">
        <path
           id="path898-9"
           style="display:inline;opacity:1;fill:none;stroke:#000000;stroke-width:1.15707544;stroke-linecap:butt;stroke-linejoin:miter;stroke-opacity:1;stroke-dasharray:none"
           d="m 103.9486,39.139896 c -9.93506,0.04186 -17.966291,7.895673 -17.966273,17.569376 9.1e-5,4.176979 1.528535,8.217277 4.31119,11.396269 h -1.778838 l -8.309901,1.404884 c -0.80306,0.559246 -0.554487,1.26951 -0.913657,1.713059 -0.915198,1.130236 -2.244612,0.568154 -4.547076,2.105597 l -0.544039,9.655089 h -9.744662 c -6.748117,0.07802 -8.884879,-1.288855 -8.388674,8.389104 0.47484,0.633126 -0.316816,144.829936 -0.316816,144.829936 0.831168,1.60477 -0.34028,3.87687 4.590357,4.11516 l 67.270409,0.31679 c 15.78618,-1.27522 23.93285,-9.03679 23.90094,-23.74251 V 87.258142 c 0.20002,-3.329235 -1.4159,-4.529606 -4.27354,-4.273972 H 133.7565 l -0.13072,-9.180294 c -0.26411,-0.513154 -0.32391,-1.281277 -4.81282,-2.341908 -0.54729,-0.129325 -0.0173,-1.658015 -0.56914,-2.090041 l -8.86389,-1.266386 h -1.62 c 2.7825,-3.179059 4.31079,-7.219356 4.31076,-11.396269 -8e-5,-9.703242 -8.07868,-17.569287 -18.04418,-17.569376 -0.026,-4.4e-5 -0.0519,-4.4e-5 -0.0779,0 z m -0.1056,12.930123 h 0.005 c 2.65806,-6.7e-5 4.81287,2.154747 4.81282,4.812808 -1.8e-4,2.657907 -2.15492,4.812454 -4.81282,4.812387 -2.65791,6.7e-5 -4.812642,-2.15448 -4.812826,-4.812387 -5e-5,-2.6562 2.151846,-4.810238 4.808066,-4.812808 z m -8.205608,2.449693 0.07404,4.009961 -4.505956,-2.005191 z m -27.721751,41.85854 72.843249,0.131137 c 3.34698,0.151309 3.80137,2.753175 3.84376,5.808711 l -0.13113,43.08254 c -2.17676,10.44706 -8.09949,11.59992 -14.55013,12.31165 l -62.901229,-0.22377 c -2.870061,0.048 -3.10842,-1.65853 -3.35772,-3.35771 l 0.671718,-51.48463 c -0.564775,-4.287533 0.770769,-6.199765 3.581482,-6.267928 z M 94.843628,209.90194 c 0.547764,0.0109 1.070812,0.3142 1.340833,0.83704 l 0.228956,0.44277 c 0.39277,0.76051 0.09657,1.68905 -0.663921,2.0818 l -7.624773,3.93813 c -0.76048,0.39275 -1.689034,0.0966 -2.081805,-0.66393 l -0.228522,-0.44276 c -0.392766,-0.76049 -0.09656,-1.68903 0.663928,-2.08181 l 7.624765,-3.93768 c 0.237659,-0.12274 0.491557,-0.1785 0.740539,-0.17356 z m 16.341082,0 c 0.54777,0.0109 1.07081,0.3142 1.34084,0.83704 l 0.22852,0.44277 c 0.39277,0.76048 0.097,1.68905 -0.66349,2.0818 l -7.62477,3.93813 c -0.76049,0.39275 -1.68904,0.0966 -2.0818,-0.66393 l -0.22896,-0.44276 c -0.39277,-0.76049 -0.0966,-1.68903 0.66392,-2.08181 l 7.62478,-3.93768 c 0.23765,-0.12274 0.49199,-0.1785 0.74096,-0.17356 z"
           sodipodi:nodetypes="sccccsccccccccccccscccsscsccccsccccccsccccccsscccccssccccccccscccc" />
      </g>
      <g
         id="layer2-1"
         inkscape:label="Layer 2"
         style="display:inline;stroke:#000000;fill:none;stroke-width:1.15707544;stroke-dasharray:none">
        <path
           id="path861-8"
           style="display:inline;fill:none;stroke:#000000;stroke-width:1.15707544;stroke-linecap:round;stop-color:#000000;stroke-dasharray:none"
           d="m 344.77169,185.44743 a 5.6158753,5.6158753 0 0 1 -5.61587,5.61587 5.6158753,5.6158753 0 0 1 -5.61588,-5.61587 5.6158753,5.6158753 0 0 1 5.61588,-5.61588 5.6158753,5.6158753 0 0 1 5.61587,5.61588 z" />
        <path
           id="circle947"
           style="display:inline;fill:none;stroke:#000000;stroke-width:1.15707544;stroke-linecap:round;stop-color:#000000;stroke-dasharray:none"
           d="m 329.32624,192.72246 a 5.6158753,5.6158753 0 0 1 -5.61588,5.61588 5.6158753,5.6158753 0 0 1 -5.61588,-5.61588 5.6158753,5.6158753 0 0 1 5.61588,-5.61587 5.6158753,5.6158753 0 0 1 5.61588,5.61587 z" />
        <path
           id="rect951"
           style="fill:none;stroke:#000000;stroke-width:1.15707544;stroke-linecap:round;stop-color:#000000;stroke-dasharray:none"
           d="m 274.06376,178.98564 c -1.03239,0 -1.86368,0.83088 -1.86368,1.86323 v 5.73989 h -5.88922 c -0.95442,1e-5 -1.72256,0.76858 -1.72256,1.72301 v 4.61286 c 0,0.95444 0.76814,1.72258 1.72256,1.72258 h 5.88922 v 6.08181 c 0,1.03235 0.83129,1.86367 1.86368,1.86367 h 4.21684 c 1.03233,0 1.86365,-0.83132 1.86365,-1.86367 v -6.08181 h 6.00131 c 0.95443,0 1.72259,-0.76814 1.72259,-1.72258 v -4.61286 c 0,-0.95443 -0.76816,-1.72301 -1.72259,-1.72301 h -6.00131 v -5.73989 c 0,-1.03235 -0.83132,-1.86323 -1.86365,-1.86323 z" />
        <path
           id="rect1430"
           style="display:inline;opacity:0.977124;fill:none;stroke:#000000;stroke-width:1.15707544;stroke-linecap:round;stop-color:#000000;stroke-dasharray:none"
           d="m 338.61077,210.99345 c -0.40498,0.24786 -0.47439,0.91419 -0.15563,1.49399 l 6.7861,12.34343 c 0.31877,0.57981 0.90143,0.84706 1.30641,0.5992 0.40498,-0.24786 0.47438,-0.91419 0.15562,-1.49399 l -6.7861,-12.34342 c -0.31877,-0.57982 -0.90143,-0.84707 -1.3064,-0.59921 z" />
        <path
           id="rect1432"
           style="display:inline;opacity:0.977124;fill:none;stroke:#000000;stroke-width:1.15707544;stroke-linecap:round;stop-color:#000000;stroke-dasharray:none"
           d="m 333.73561,213.65254 c -0.40498,0.24786 -0.47439,0.91418 -0.15562,1.494 l 6.7861,12.34342 c 0.31877,0.57981 0.90143,0.84706 1.30641,0.5992 0.40498,-0.24786 0.47438,-0.91418 0.15561,-1.49399 l -6.7861,-12.34343 c -0.31877,-0.57981 -0.90142,-0.84705 -1.3064,-0.5992 z" />
        <path
           id="rect1434"
           style="display:inline;opacity:0.977124;fill:none;stroke:#000000;stroke-width:1.15707544;stroke-linecap:round;stop-color:#000000;stroke-dasharray:none"
           d="m 329.30366,216.31191 c -0.40498,0.24786 -0.47438,0.91418 -0.15562,1.494 l 6.7861,12.34342 c 0.31877,0.57981 0.90143,0.84705 1.3064,0.5992 0.40499,-0.24786 0.47439,-0.91418 0.15563,-1.494 l -6.7861,-12.34342 c -0.31877,-0.57981 -0.90143,-0.84705 -1.30641,-0.5992 z" />
        <path
           id="rect1436"
           style="display:inline;opacity:0.977124;fill:none;stroke:#000000;stroke-width:1.15707544;stroke-linecap:round;stop-color:#000000;stroke-dasharray:none"
           d="m 324.42852,218.97129 c -0.40499,0.24786 -0.47438,0.91419 -0.15562,1.494 l 6.7861,12.34342 c 0.31877,0.57982 0.90142,0.84706 1.3064,0.5992 0.40498,-0.24786 0.47439,-0.91417 0.15562,-1.494 l -6.7861,-12.34342 c -0.31877,-0.57981 -0.90142,-0.84706 -1.3064,-0.5992 z" />
        <path
           id="rect1438"
           style="display:inline;opacity:0.977124;fill:none;stroke:#000000;stroke-width:1.15707544;stroke-linecap:round;stop-color:#000000;stroke-dasharray:none"
           d="m 319.99657,221.63066 c -0.40498,0.24786 -0.47439,0.91418 -0.15562,1.494 l 6.7861,12.34342 c 0.31877,0.57981 0.90143,0.84705 1.3064,0.59919 0.40498,-0.24786 0.47439,-0.91417 0.15562,-1.49399 l -6.7861,-12.34342 c -0.31876,-0.57981 -0.90143,-0.84706 -1.3064,-0.5992 z" />
        <path
           id="rect1440"
           style="display:inline;opacity:0.977124;fill:none;stroke:#000000;stroke-width:1.15707544;stroke-linecap:round;stop-color:#000000;stroke-dasharray:none"
           d="m 315.12143,224.29004 c -0.40498,0.24786 -0.47439,0.91418 -0.15561,1.494 l 6.78609,12.34342 c 0.31877,0.57981 0.90142,0.84705 1.3064,0.59919 0.40498,-0.24785 0.47439,-0.91417 0.15562,-1.49399 l -6.7861,-12.34341 c -0.31876,-0.57983 -0.90142,-0.84707 -1.3064,-0.59921 z" />
      </g>
    </g>
    <text
       xml:space="preserve"
       style="font-size:2.11667px;line-height:1;font-family:monospace;-inkscape-font-specification:monospace;text-align:center;text-decoration-color:#000000;letter-spacing:0px;word-spacing:0px;text-anchor:middle;fill:#ff6600;stroke:#0000ff;stroke-width:0.1;stroke-dasharray:0.0499999, 0.0499999"
       x="87.693192"
       y="89.622749"
       id="text1"><tspan
         sodipodi:role="line"
         id="tspan1"
         style="stroke-width:0.1" /></text>
  </g>
</svg>
